<svg width="120" height="124" viewBox="0 0 120 124" fill="none" xmlns="http://www.w3.org/2000/svg">
<path d="M35.6875 88.3311L9.52455 114.494" stroke="#F3B42A" stroke-width="7" stroke-linecap="round" stroke-linejoin="round"/>
<path d="M21.5449 71.3604L5.28147 87.6238" stroke="#F3B42A" stroke-width="7" stroke-linecap="round" stroke-linejoin="round"/>
<path d="M52.6582 102.473L36.3947 118.737" stroke="#F3B42A" stroke-width="7" stroke-linecap="round" stroke-linejoin="round"/>
<mask id="path-4-inside-1" fill="white">
<path fill-rule="evenodd" clip-rule="evenodd" d="M106.275 76.8198C88.7013 94.3934 60.2089 94.3934 42.6353 76.8198C25.0617 59.2462 25.0617 30.7538 42.6353 13.1802C60.2089 -4.3934 88.7013 -4.3934 106.275 13.1802C123.848 30.7538 123.848 59.2462 106.275 76.8198ZM78.9 14.2399C79.4003 12.3728 81.3195 11.2648 83.1866 11.7651C89.7598 13.5263 95.6631 17.1972 100.15 22.3136C104.637 27.4299 107.506 33.7618 108.394 40.5087C109.282 47.2555 108.15 54.1142 105.14 60.2175C102.13 66.3208 97.3783 71.3945 91.4849 74.797C89.8109 75.7635 87.6703 75.1899 86.7038 73.5159C85.7373 71.8419 86.3109 69.7013 87.9849 68.7348C92.6793 66.0245 96.4645 61.9831 98.862 57.1215C101.259 52.2599 102.161 46.7966 101.454 41.4223C100.746 36.0481 98.4611 31.0044 94.8871 26.929C91.313 22.8536 86.6108 19.9295 81.3749 18.5265C79.5077 18.0262 78.3997 16.1071 78.9 14.2399ZM48.6842 67.9912C49.9758 69.4293 52.1887 69.548 53.6268 68.2564C55.0649 66.9648 55.1837 64.7519 53.8921 63.3138C49.8607 58.8252 47.423 53.1317 46.9572 47.1165C46.4913 41.1013 48.0234 35.1005 51.3156 30.0447C52.3704 28.4249 51.9124 26.2567 50.2926 25.2019C48.6727 24.147 46.5045 24.6051 45.4497 26.2249C41.3166 32.572 39.3933 40.1055 39.9781 47.657C40.5629 55.2086 43.6231 62.3561 48.6842 67.9912Z"/>
</mask>
<path fill-rule="evenodd" clip-rule="evenodd" d="M106.275 76.8198C88.7013 94.3934 60.2089 94.3934 42.6353 76.8198C25.0617 59.2462 25.0617 30.7538 42.6353 13.1802C60.2089 -4.3934 88.7013 -4.3934 106.275 13.1802C123.848 30.7538 123.848 59.2462 106.275 76.8198ZM78.9 14.2399C79.4003 12.3728 81.3195 11.2648 83.1866 11.7651C89.7598 13.5263 95.6631 17.1972 100.15 22.3136C104.637 27.4299 107.506 33.7618 108.394 40.5087C109.282 47.2555 108.15 54.1142 105.14 60.2175C102.13 66.3208 97.3783 71.3945 91.4849 74.797C89.8109 75.7635 87.6703 75.1899 86.7038 73.5159C85.7373 71.8419 86.3109 69.7013 87.9849 68.7348C92.6793 66.0245 96.4645 61.9831 98.862 57.1215C101.259 52.2599 102.161 46.7966 101.454 41.4223C100.746 36.0481 98.4611 31.0044 94.8871 26.929C91.313 22.8536 86.6108 19.9295 81.3749 18.5265C79.5077 18.0262 78.3997 16.1071 78.9 14.2399ZM48.6842 67.9912C49.9758 69.4293 52.1887 69.548 53.6268 68.2564C55.0649 66.9648 55.1837 64.7519 53.8921 63.3138C49.8607 58.8252 47.423 53.1317 46.9572 47.1165C46.4913 41.1013 48.0234 35.1005 51.3156 30.0447C52.3704 28.4249 51.9124 26.2567 50.2926 25.2019C48.6727 24.147 46.5045 24.6051 45.4497 26.2249C41.3166 32.572 39.3933 40.1055 39.9781 47.657C40.5629 55.2086 43.6231 62.3561 48.6842 67.9912Z" fill="#F3B42A"/>
<path d="M42.6353 76.8198L46.1708 73.2843L46.1708 73.2843L42.6353 76.8198ZM106.275 76.8198L102.739 73.2843L102.739 73.2843L106.275 76.8198ZM42.6353 13.1802L39.0997 9.64466L42.6353 13.1802ZM106.275 13.1802L102.739 16.7157L106.275 13.1802ZM83.1866 11.7651L84.4807 6.93543L83.1866 11.7651ZM78.9 14.2399L83.7296 15.534V15.534L78.9 14.2399ZM100.15 22.3136L103.909 19.0168L100.15 22.3136ZM108.394 40.5087L103.437 41.1613V41.1613L108.394 40.5087ZM91.4849 74.797L88.9849 70.4669L88.9849 70.4669L91.4849 74.797ZM86.7038 73.5159L91.034 71.0159L91.0339 71.0159L86.7038 73.5159ZM87.9849 68.7348L85.4849 64.4047H85.4849L87.9849 68.7348ZM98.862 57.1215L94.3776 54.91L94.3776 54.91L98.862 57.1215ZM101.454 41.4223L106.411 40.7697V40.7697L101.454 41.4223ZM94.8871 26.929L98.6463 23.6322L98.6463 23.6322L94.8871 26.929ZM81.3749 18.5265L80.0808 23.3562L81.3749 18.5265ZM53.6268 68.2564L50.2858 64.5365L50.2858 64.5365L53.6268 68.2564ZM48.6842 67.9912L44.9643 71.3322L44.9643 71.3322L48.6842 67.9912ZM53.8921 63.3138L57.612 59.9728L57.612 59.9728L53.8921 63.3138ZM46.9572 47.1165L41.9721 47.5026V47.5026L46.9572 47.1165ZM51.3156 30.0447L55.5056 32.7732H55.5056L51.3156 30.0447ZM50.2926 25.2019L47.5641 29.3918L47.5641 29.3918L50.2926 25.2019ZM45.4497 26.2249L41.2598 23.4965L41.2597 23.4965L45.4497 26.2249ZM39.9781 47.657L44.9631 47.271H44.9631L39.9781 47.657ZM39.0997 80.3553C58.626 99.8815 90.2842 99.8816 109.81 80.3553L102.739 73.2843C87.1184 88.9052 61.7918 88.9052 46.1708 73.2843L39.0997 80.3553ZM39.0997 9.64466C19.5735 29.1709 19.5735 60.8291 39.0997 80.3553L46.1708 73.2843C30.5498 57.6633 30.5498 32.3367 46.1708 16.7157L39.0997 9.64466ZM109.81 9.64466C90.2842 -9.88155 58.626 -9.88155 39.0997 9.64466L46.1708 16.7157C61.7918 1.09476 87.1184 1.09476 102.739 16.7157L109.81 9.64466ZM109.81 80.3553C129.337 60.8291 129.337 29.1709 109.81 9.64466L102.739 16.7157C118.36 32.3367 118.36 57.6633 102.739 73.2843L109.81 80.3553ZM84.4807 6.93543C79.9462 5.72042 75.2854 8.41137 74.0704 12.9458L83.7296 15.534C83.5152 16.3342 82.6927 16.8091 81.8925 16.5947L84.4807 6.93543ZM103.909 19.0168C98.7702 13.157 92.0091 8.95265 84.4807 6.93543L81.8925 16.5947C87.5105 18.1 92.5559 21.2375 96.3908 25.6103L103.909 19.0168ZM113.351 39.856C112.334 32.1287 109.048 24.8766 103.909 19.0168L96.3908 25.6103C100.226 29.9831 102.678 35.3949 103.437 41.1613L113.351 39.856ZM109.624 62.4289C113.072 55.4387 114.369 47.5833 113.351 39.856L103.437 41.1613C104.196 46.9277 103.228 52.7897 100.656 58.0061L109.624 62.4289ZM93.9849 79.1271C100.735 75.2302 106.177 69.4191 109.624 62.4289L100.656 58.0061C98.0833 63.2224 94.0219 67.5588 88.9849 70.4669L93.9849 79.1271ZM82.3737 76.0159C84.7209 80.0814 89.9194 81.4743 93.9849 79.1271L88.9849 70.4669C89.7023 70.0527 90.6197 70.2985 91.034 71.0159L82.3737 76.0159ZM85.4849 64.4047C81.4194 66.7519 80.0265 71.9504 82.3737 76.0159L91.0339 71.0159C91.4482 71.7334 91.2023 72.6507 90.4849 73.065L85.4849 64.4047ZM94.3776 54.91C92.4176 58.8847 89.3229 62.1889 85.4849 64.4047L90.4849 73.065C96.0357 69.8602 100.512 65.0814 103.346 59.3329L94.3776 54.91ZM96.4967 42.075C97.0752 46.4687 96.3377 50.9354 94.3776 54.91L103.346 59.3329C106.181 53.5844 107.248 47.1244 106.411 40.7697L96.4967 42.075ZM91.1279 30.2257C94.0499 33.5576 95.9183 37.6812 96.4967 42.075L106.411 40.7697C105.575 34.415 102.872 28.4512 98.6463 23.6322L91.1279 30.2257ZM80.0808 23.3562C84.3614 24.5032 88.2059 26.8938 91.1279 30.2257L98.6463 23.6322C94.4202 18.8133 88.8601 15.3558 82.669 13.6969L80.0808 23.3562ZM74.0704 12.9458C72.8554 17.4803 75.5463 22.1412 80.0808 23.3562L82.669 13.6969C83.4692 13.9113 83.944 14.7338 83.7296 15.534L74.0704 12.9458ZM50.2858 64.5365C50.9022 63.9829 51.8505 64.0338 52.4041 64.6502L44.9643 71.3322C48.1011 74.8247 53.4753 75.1131 56.9678 71.9763L50.2858 64.5365ZM50.1721 66.6548C49.6186 66.0384 49.6695 65.0901 50.2858 64.5365L56.9678 71.9763C60.4604 68.8395 60.7488 63.4653 57.612 59.9728L50.1721 66.6548ZM41.9721 47.5026C42.5229 54.6152 45.4053 61.3473 50.1722 66.6548L57.612 59.9728C54.316 56.303 52.3231 51.6483 51.9422 46.7305L41.9721 47.5026ZM47.1257 27.3163C43.2328 33.2944 41.4213 40.39 41.9721 47.5026L51.9422 46.7305C51.5614 41.8127 52.8139 36.9066 55.5056 32.7732L47.1257 27.3163ZM47.5641 29.3918C46.8699 28.9397 46.6736 28.0105 47.1257 27.3163L55.5056 32.7732C58.0672 28.8393 56.9549 23.5736 53.021 21.0119L47.5641 29.3918ZM49.6396 28.9533C49.1876 29.6476 48.2583 29.8439 47.5641 29.3918L53.021 21.0119C49.0871 18.4502 43.8214 19.5626 41.2598 23.4965L49.6396 28.9533ZM44.9631 47.271C44.4633 40.8168 46.1071 34.3781 49.6396 28.9533L41.2597 23.4965C36.526 30.7659 34.3232 39.3941 34.993 48.0431L44.9631 47.271ZM52.4041 64.6502C48.0785 59.834 45.463 53.7251 44.9631 47.271L34.993 48.0431C35.6628 56.692 39.1678 64.8783 44.9643 71.3322L52.4041 64.6502Z" fill="#F3B42A" mask="url(#path-4-inside-1)"/>
</svg>
