<svg width="158" height="163" viewBox="0 0 158 163" fill="none" xmlns="http://www.w3.org/2000/svg">
<path d="M46.2617 116.997L11.6057 151.653" stroke="white" stroke-width="8" stroke-linecap="round" stroke-linejoin="round"/>
<path d="M27.543 94.5129L6.00005 116.056" stroke="white" stroke-width="8" stroke-linecap="round" stroke-linejoin="round"/>
<path d="M68.7617 135.732L47.2188 157.275" stroke="white" stroke-width="8" stroke-linecap="round" stroke-linejoin="round"/>
<path fill-rule="evenodd" clip-rule="evenodd" d="M139.769 101.757C116.491 125.036 78.7489 125.036 55.4705 101.757C32.1921 78.4788 32.1921 40.7371 55.4705 17.4588C78.7489 -5.81959 116.491 -5.81959 139.769 17.4588C163.047 40.7371 163.047 78.4788 139.769 101.757ZM70.5007 27.6361C69.2479 25.8166 69.7073 23.3259 71.5268 22.0731C79.7971 16.3786 89.7164 13.5747 99.744 14.0969C109.771 14.6191 119.346 18.4382 126.98 24.9609C134.614 31.4836 139.88 40.3448 141.961 50.168C144.041 59.9912 142.82 70.2265 138.486 79.2841C137.532 81.2768 135.144 82.1193 133.151 81.1657C131.158 80.2122 130.316 77.8237 131.269 75.831C134.843 68.3633 135.85 59.9245 134.134 51.8256C132.419 43.7267 128.077 36.4209 121.783 31.0431C115.489 25.6653 107.595 22.5166 99.3279 22.0861C91.0605 21.6556 82.8823 23.9673 76.0637 28.6622C74.2442 29.915 71.7536 29.4556 70.5007 27.6361ZM90.6825 104.692C92.8677 105.016 94.9021 103.507 95.2264 101.322C95.5506 99.1371 94.0421 97.1027 91.8569 96.7784C83.9904 95.611 76.6972 91.978 71.0267 86.4021C65.3563 80.8262 61.6011 73.5951 60.3016 65.7494C59.9407 63.57 57.8812 62.0958 55.7018 62.4568C53.5223 62.8178 52.0482 64.8772 52.4092 67.0567C53.9853 76.5727 58.54 85.3434 65.4176 92.1063C72.2953 98.8693 81.1413 103.276 90.6825 104.692Z" fill="white"/>
</svg>
