<svg width="64" height="64" viewBox="0 0 64 64" fill="none" xmlns="http://www.w3.org/2000/svg">
<path fill-rule="evenodd" clip-rule="evenodd" d="M12.2556 36.371C12.8753 36.9908 12.8753 37.9955 12.2556 38.6153L3.70901 47.1619C3.08928 47.7816 2.08451 47.7816 1.46479 47.1619C0.845069 46.5421 0.845069 45.5374 1.46479 44.9177L10.0114 36.371C10.6311 35.7513 11.6359 35.7513 12.2556 36.371ZM19.6852 45.2906C20.3049 45.9103 20.3049 46.9151 19.6852 47.5348L5.9363 61.2837C5.31657 61.9034 4.3118 61.9034 3.69208 61.2837C3.07236 60.664 3.07236 59.6592 3.69208 59.0395L17.441 45.2906C18.0607 44.6709 19.0655 44.6709 19.6852 45.2906ZM28.607 52.7224C29.2267 53.3422 29.2267 54.3469 28.607 54.9666L20.0604 63.5133C19.4407 64.133 18.4359 64.133 17.8162 63.5133C17.1964 62.8935 17.1964 61.8888 17.8162 61.269L26.3628 52.7224C26.9825 52.1027 27.9873 52.1027 28.607 52.7224Z" fill="#F3B42A"/>
<path fill-rule="evenodd" clip-rule="evenodd" d="M55.6577 40.3696C46.4226 49.6047 31.4495 49.6047 22.2144 40.3696C12.9793 31.1345 12.9793 16.1614 22.2144 6.92633C31.4495 -2.30878 46.4226 -2.30878 55.6577 6.92633C64.8928 16.1614 64.8928 31.1345 55.6577 40.3696ZM28.1781 10.9607C27.6811 10.2388 27.8633 9.25071 28.5852 8.75368C31.8662 6.49455 35.8015 5.38218 39.7796 5.58935C43.7578 5.79651 47.5562 7.31163 50.5848 9.89935C53.6134 12.4871 55.7027 16.0025 56.5281 19.8996C57.3535 23.7967 56.8689 27.8574 55.1494 31.4507C54.7711 32.2413 53.8235 32.5755 53.033 32.1972C52.2424 31.8189 51.9082 30.8713 52.2865 30.0808C53.7041 27.1182 54.1037 23.7703 53.4232 20.5573C52.7427 17.3442 51.0201 14.4458 48.5231 12.3123C46.0261 10.1788 42.8945 8.92965 39.6146 8.75885C36.3347 8.58804 33.0902 9.50516 30.3851 11.3678C29.6632 11.8648 28.6751 11.6825 28.1781 10.9607ZM36.1865 41.533C37.0534 41.6616 37.8605 41.0632 37.9892 40.1962C38.1178 39.3293 37.5193 38.5222 36.6524 38.3936C33.5316 37.9304 30.6382 36.4891 28.3886 34.277C26.139 32.065 24.6492 29.1962 24.1337 26.0836C23.9904 25.219 23.1734 24.6341 22.3088 24.7773C21.4441 24.9206 20.8593 25.7376 21.0025 26.6022C21.6278 30.3775 23.4348 33.857 26.1633 36.54C28.8918 39.2231 32.4013 40.9713 36.1865 41.533Z" fill="#F3B42A"/>
</svg>
